<svg width="717" height="215" viewBox="0 0 717 215" fill="none" xmlns="http://www.w3.org/2000/svg">
<g id="Group 56">
<path id="Vector 1" d="M0 215L716.5 0V215H0Z" fill="#3E4A61"/>
<path id="BACKEND CLOUD SKILLS" opacity="0.6" d="M535.542 92.352C536.822 92.7573 537.824 93.44 538.55 94.4C539.275 95.3387 539.638 96.5013 539.638 97.888C539.638 99.8507 538.87 101.365 537.334 102.432C535.819 103.477 533.6 104 530.678 104H519.094V81.6H530.038C532.768 81.6 534.859 82.1227 536.31 83.168C537.782 84.2133 538.518 85.632 538.518 87.424C538.518 88.512 538.251 89.4827 537.718 90.336C537.206 91.1893 536.48 91.8613 535.542 92.352ZM524.246 85.504V90.784H529.398C530.678 90.784 531.648 90.56 532.31 90.112C532.971 89.664 533.302 89.0027 533.302 88.128C533.302 87.2533 532.971 86.6027 532.31 86.176C531.648 85.728 530.678 85.504 529.398 85.504H524.246ZM530.294 100.096C531.659 100.096 532.683 99.872 533.366 99.424C534.07 98.976 534.422 98.2827 534.422 97.344C534.422 95.488 533.046 94.56 530.294 94.56H524.246V100.096H530.294ZM558.314 99.2H547.914L545.93 104H540.618L550.602 81.6H555.722L565.738 104H560.298L558.314 99.2ZM556.682 95.264L553.13 86.688L549.578 95.264H556.682ZM578.47 104.384C576.187 104.384 574.118 103.893 572.262 102.912C570.427 101.909 568.976 100.533 567.91 98.784C566.864 97.0133 566.342 95.0187 566.342 92.8C566.342 90.5813 566.864 88.5973 567.91 86.848C568.976 85.0773 570.427 83.7013 572.262 82.72C574.118 81.7173 576.198 81.216 578.502 81.216C580.443 81.216 582.192 81.5573 583.75 82.24C585.328 82.9227 586.651 83.904 587.718 85.184L584.39 88.256C582.875 86.5067 580.998 85.632 578.758 85.632C577.371 85.632 576.134 85.9413 575.046 86.56C573.958 87.1573 573.104 88 572.486 89.088C571.888 90.176 571.59 91.4133 571.59 92.8C571.59 94.1867 571.888 95.424 572.486 96.512C573.104 97.6 573.958 98.4533 575.046 99.072C576.134 99.6693 577.371 99.968 578.758 99.968C580.998 99.968 582.875 99.0827 584.39 97.312L587.718 100.384C586.651 101.685 585.328 102.677 583.75 103.36C582.171 104.043 580.411 104.384 578.47 104.384ZM599.379 95.2L596.371 98.336V104H591.219V81.6H596.371V92.064L606.291 81.6H612.051L602.771 91.584L612.595 104H606.547L599.379 95.2ZM632.25 99.84V104H614.906V81.6H631.834V85.76H620.058V90.624H630.458V94.656H620.058V99.84H632.25ZM656.919 81.6V104H652.663L641.495 90.4V104H636.375V81.6H640.663L651.799 95.2V81.6H656.919ZM662.219 81.6H672.395C674.827 81.6 676.971 82.0693 678.827 83.008C680.704 83.9253 682.155 85.2267 683.179 86.912C684.224 88.5973 684.747 90.56 684.747 92.8C684.747 95.04 684.224 97.0027 683.179 98.688C682.155 100.373 680.704 101.685 678.827 102.624C676.971 103.541 674.827 104 672.395 104H662.219V81.6ZM672.139 99.744C674.379 99.744 676.16 99.1253 677.483 97.888C678.827 96.6293 679.499 94.9333 679.499 92.8C679.499 90.6667 678.827 88.9813 677.483 87.744C676.16 86.4853 674.379 85.856 672.139 85.856H667.403V99.744H672.139ZM578.314 143.384C576.031 143.384 573.962 142.893 572.106 141.912C570.271 140.909 568.82 139.533 567.754 137.784C566.708 136.013 566.186 134.019 566.186 131.8C566.186 129.581 566.708 127.597 567.754 125.848C568.82 124.077 570.271 122.701 572.106 121.72C573.962 120.717 576.042 120.216 578.346 120.216C580.287 120.216 582.036 120.557 583.594 121.24C585.172 121.923 586.495 122.904 587.562 124.184L584.234 127.256C582.719 125.507 580.842 124.632 578.602 124.632C577.215 124.632 575.978 124.941 574.89 125.56C573.802 126.157 572.948 127 572.33 128.088C571.732 129.176 571.434 130.413 571.434 131.8C571.434 133.187 571.732 134.424 572.33 135.512C572.948 136.6 573.802 137.453 574.89 138.072C575.978 138.669 577.215 138.968 578.602 138.968C580.842 138.968 582.719 138.083 584.234 136.312L587.562 139.384C586.495 140.685 585.172 141.677 583.594 142.36C582.015 143.043 580.255 143.384 578.314 143.384ZM591.062 120.6H596.246V138.776H607.478V143H591.062V120.6ZM620.848 143.384C618.522 143.384 616.421 142.883 614.544 141.88C612.688 140.877 611.226 139.501 610.16 137.752C609.114 135.981 608.592 133.997 608.592 131.8C608.592 129.603 609.114 127.629 610.16 125.88C611.226 124.109 612.688 122.723 614.544 121.72C616.421 120.717 618.522 120.216 620.848 120.216C623.173 120.216 625.264 120.717 627.12 121.72C628.976 122.723 630.437 124.109 631.504 125.88C632.57 127.629 633.104 129.603 633.104 131.8C633.104 133.997 632.57 135.981 631.504 137.752C630.437 139.501 628.976 140.877 627.12 141.88C625.264 142.883 623.173 143.384 620.848 143.384ZM620.848 138.968C622.17 138.968 623.365 138.669 624.432 138.072C625.498 137.453 626.33 136.6 626.928 135.512C627.546 134.424 627.856 133.187 627.856 131.8C627.856 130.413 627.546 129.176 626.928 128.088C626.33 127 625.498 126.157 624.432 125.56C623.365 124.941 622.17 124.632 620.848 124.632C619.525 124.632 618.33 124.941 617.264 125.56C616.197 126.157 615.354 127 614.736 128.088C614.138 129.176 613.84 130.413 613.84 131.8C613.84 133.187 614.138 134.424 614.736 135.512C615.354 136.6 616.197 137.453 617.264 138.072C618.33 138.669 619.525 138.968 620.848 138.968ZM646.952 143.384C643.752 143.384 641.256 142.499 639.464 140.728C637.693 138.957 636.808 136.429 636.808 133.144V120.6H641.992V132.952C641.992 136.963 643.656 138.968 646.984 138.968C648.605 138.968 649.842 138.488 650.696 137.528C651.549 136.547 651.976 135.021 651.976 132.952V120.6H657.096V133.144C657.096 136.429 656.2 138.957 654.408 140.728C652.637 142.499 650.152 143.384 646.952 143.384ZM662.219 120.6H672.395C674.827 120.6 676.971 121.069 678.827 122.008C680.704 122.925 682.155 124.227 683.179 125.912C684.224 127.597 684.747 129.56 684.747 131.8C684.747 134.04 684.224 136.003 683.179 137.688C682.155 139.373 680.704 140.685 678.827 141.624C676.971 142.541 674.827 143 672.395 143H662.219V120.6ZM672.139 138.744C674.379 138.744 676.16 138.125 677.483 136.888C678.827 135.629 679.499 133.933 679.499 131.8C679.499 129.667 678.827 127.981 677.483 126.744C676.16 125.485 674.379 124.856 672.139 124.856H667.403V138.744H672.139ZM582.516 182.384C580.745 182.384 579.028 182.149 577.364 181.68C575.721 181.189 574.399 180.56 573.396 179.792L575.156 175.888C576.116 176.592 577.257 177.157 578.58 177.584C579.903 178.011 581.225 178.224 582.548 178.224C584.02 178.224 585.108 178.011 585.812 177.584C586.516 177.136 586.868 176.549 586.868 175.824C586.868 175.291 586.655 174.853 586.228 174.512C585.823 174.149 585.289 173.861 584.628 173.648C583.988 173.435 583.113 173.2 582.004 172.944C580.297 172.539 578.9 172.133 577.812 171.728C576.724 171.323 575.785 170.672 574.996 169.776C574.228 168.88 573.844 167.685 573.844 166.192C573.844 164.891 574.196 163.717 574.9 162.672C575.604 161.605 576.66 160.763 578.068 160.144C579.497 159.525 581.236 159.216 583.284 159.216C584.713 159.216 586.111 159.387 587.476 159.728C588.841 160.069 590.036 160.56 591.06 161.2L589.46 165.136C587.391 163.963 585.321 163.376 583.252 163.376C581.801 163.376 580.724 163.611 580.02 164.08C579.337 164.549 578.996 165.168 578.996 165.936C578.996 166.704 579.391 167.28 580.18 167.664C580.991 168.027 582.217 168.389 583.86 168.752C585.567 169.157 586.964 169.563 588.052 169.968C589.14 170.373 590.068 171.013 590.836 171.888C591.625 172.763 592.02 173.947 592.02 175.44C592.02 176.72 591.657 177.893 590.932 178.96C590.228 180.005 589.161 180.837 587.732 181.456C586.303 182.075 584.564 182.384 582.516 182.384ZM603.722 173.2L600.714 176.336V182H595.562V159.6H600.714V170.064L610.634 159.6H616.394L607.114 169.584L616.938 182H610.89L603.722 173.2ZM619.25 159.6H624.434V182H619.25V159.6ZM629.75 159.6H634.934V177.776H646.166V182H629.75V159.6ZM649.062 159.6H654.246V177.776H665.478V182H649.062V159.6ZM675.61 182.384C673.839 182.384 672.122 182.149 670.458 181.68C668.815 181.189 667.492 180.56 666.49 179.792L668.25 175.888C669.21 176.592 670.351 177.157 671.674 177.584C672.996 178.011 674.319 178.224 675.642 178.224C677.114 178.224 678.202 178.011 678.906 177.584C679.61 177.136 679.962 176.549 679.962 175.824C679.962 175.291 679.748 174.853 679.322 174.512C678.916 174.149 678.383 173.861 677.722 173.648C677.082 173.435 676.207 173.2 675.098 172.944C673.391 172.539 671.994 172.133 670.906 171.728C669.818 171.323 668.879 170.672 668.09 169.776C667.322 168.88 666.938 167.685 666.938 166.192C666.938 164.891 667.29 163.717 667.994 162.672C668.698 161.605 669.754 160.763 671.162 160.144C672.591 159.525 674.33 159.216 676.378 159.216C677.807 159.216 679.204 159.387 680.57 159.728C681.935 160.069 683.13 160.56 684.154 161.2L682.554 165.136C680.484 163.963 678.415 163.376 676.346 163.376C674.895 163.376 673.818 163.611 673.114 164.08C672.431 164.549 672.09 165.168 672.09 165.936C672.09 166.704 672.484 167.28 673.274 167.664C674.084 168.027 675.311 168.389 676.954 168.752C678.66 169.157 680.058 169.563 681.146 169.968C682.234 170.373 683.162 171.013 683.93 171.888C684.719 172.763 685.114 173.947 685.114 175.44C685.114 176.72 684.751 177.893 684.026 178.96C683.322 180.005 682.255 180.837 680.826 181.456C679.396 182.075 677.658 182.384 675.61 182.384Z" fill="#D9DAD7"/>
</g>
</svg>
