<svg width="717" height="215" viewBox="0 0 717 215" fill="none" xmlns="http://www.w3.org/2000/svg"><path d="M0 215L716.5 0v215H0z" fill="#3E4A61"/><path opacity=".6" d="M535.5 92.4c1.3.4 2.3 1 3 2 .8 1 1.1 2.1 1.1 3.5 0 2-.7 3.5-2.3 4.5-1.5 1-3.7 1.6-6.6 1.6H519V81.6h11c2.7 0 4.8.5 6.2 1.6a5 5 0 012.2 4.2 5.4 5.4 0 01-3 5zm-11.3-6.9v5.3h5.2c1.3 0 2.2-.2 3-.7.6-.4.9-1.1.9-2 0-.8-.3-1.5-1-2-.7-.4-1.6-.6-2.9-.6h-5.2zm6 14.6c1.5 0 2.5-.2 3.2-.7.7-.4 1-1.1 1-2 0-2-1.4-2.8-4.1-2.8h-6v5.5h6zm28.1-.9H548l-2 4.8h-5.3l10-22.4h5.1l10 22.4h-5.4l-2-4.8zm-1.6-4l-3.6-8.5-3.5 8.6h7zm21.8 9.2a13 13 0 01-6.2-1.5c-1.9-1-3.3-2.4-4.4-4.1-1-1.8-1.6-3.8-1.6-6s.6-4.2 1.6-6a11 11 0 014.4-4c1.8-1 3.9-1.6 6.2-1.6 2 0 3.7.4 5.3 1 1.5.7 2.9 1.7 4 3l-3.4 3a7.2 7.2 0 00-5.6-2.6c-1.4 0-2.7.3-3.8 1-1 .6-1.9 1.4-2.5 2.5a7.6 7.6 0 000 7.4c.6 1.1 1.5 2 2.5 2.6 1.1.6 2.4.9 3.8.9 2.2 0 4-1 5.6-2.7l3.3 3c-1 1.4-2.4 2.4-4 3-1.5.7-3.3 1-5.2 1zm20.9-9.2l-3 3.1v5.7h-5.2V81.6h5.2v10.5l9.9-10.5h5.8l-9.3 10 9.8 12.4h-6l-7.2-8.8zm32.9 4.6v4.2h-17.4V81.6h17v4.2H620v4.8h10.4v4H620v5.2h12.1zm24.6-18.2V104h-4.2l-11.2-13.6V104h-5.1V81.6h4.3l11.1 13.6V81.6h5.1zm5.3 0h10.2c2.4 0 4.6.5 6.4 1.4 1.9 1 3.4 2.2 4.4 4a11 11 0 011.5 5.8 10.4 10.4 0 01-6 9.8c-1.7 1-3.9 1.4-6.3 1.4h-10.2V81.6zm10 18.1c2.2 0 4-.6 5.3-1.8 1.3-1.3 2-3 2-5.1 0-2.1-.7-3.8-2-5a7.4 7.4 0 00-5.4-2h-4.7v14h4.7zm-93.9 43.7a13 13 0 01-6.2-1.5c-1.8-1-3.3-2.4-4.3-4.1-1-1.8-1.6-3.8-1.6-6s.5-4.2 1.6-6a11 11 0 014.3-4c1.9-1 4-1.6 6.2-1.6 2 0 3.7.4 5.3 1 1.6.7 2.9 1.7 4 3l-3.4 3a7.2 7.2 0 00-5.6-2.6c-1.4 0-2.6.3-3.7 1-1.1.6-2 1.4-2.6 2.5-.6 1-.9 2.3-.9 3.7 0 1.4.3 2.6 1 3.7.5 1.1 1.4 2 2.5 2.6 1 .6 2.3.9 3.7.9 2.2 0 4.1-1 5.6-2.7l3.4 3c-1.1 1.4-2.4 2.4-4 3-1.6.7-3.3 1-5.3 1zm12.8-22.8h5.1v18.2h11.3v4.2H591v-22.4zm29.7 22.8c-2.3 0-4.4-.5-6.3-1.5-1.8-1-3.3-2.4-4.3-4.1-1-1.8-1.6-3.8-1.6-6a11.3 11.3 0 016-10c1.8-1 4-1.6 6.2-1.6 2.4 0 4.5.5 6.3 1.5a11.3 11.3 0 016 10.1 11.3 11.3 0 01-6 10 13 13 0 01-6.3 1.6zm0-4.4c1.4 0 2.6-.3 3.6-1 1.1-.5 2-1.4 2.5-2.5.6-1 1-2.3 1-3.7 0-1.4-.4-2.6-1-3.7s-1.4-2-2.5-2.5a7 7 0 00-3.6-1 7 7 0 00-6 3.5c-.7 1-1 2.3-1 3.7 0 1.4.3 2.6 1 3.7a6.8 6.8 0 006 3.5zm26.2 4.4c-3.2 0-5.7-.9-7.5-2.7-1.8-1.7-2.7-4.3-2.7-7.6v-12.5h5.2V133c0 4 1.7 6 5 6 1.6 0 2.8-.5 3.7-1.5.8-1 1.3-2.5 1.3-4.5v-12.4h5.1v12.5c0 3.3-.9 5.9-2.7 7.6a10 10 0 01-7.4 2.7zm15.2-22.8h10.2c2.4 0 4.6.5 6.4 1.4 1.9 1 3.4 2.2 4.4 4a11 11 0 011.5 5.8 10.4 10.4 0 01-6 9.8c-1.7 1-3.9 1.4-6.3 1.4h-10.2v-22.4zm10 18.1c2.2 0 4-.6 5.3-1.8 1.3-1.3 2-3 2-5.1 0-2.1-.7-3.8-2-5a7.4 7.4 0 00-5.4-2h-4.7v14h4.7zm-89.7 43.7c-1.8 0-3.5-.3-5.1-.7-1.7-.5-3-1.1-4-2l1.8-3.8a12.9 12.9 0 007.4 2.3c1.4 0 2.5-.2 3.2-.6.7-.5 1-1 1-1.8 0-.5-.1-1-.6-1.3-.4-.4-1-.6-1.6-.9l-2.6-.7-4.2-1.2c-1-.4-2-1-2.8-2-.8-.8-1.2-2-1.2-3.5 0-1.3.4-2.5 1.1-3.5a7 7 0 013.2-2.6 17.2 17.2 0 019.4-.4c1.3.4 2.5.9 3.6 1.5l-1.6 4c-2.1-1.2-4.2-1.8-6.2-1.8a6 6 0 00-3.3.7c-.7.4-1 1-1 1.8s.4 1.4 1.2 1.8c.8.3 2 .7 3.7 1l4.2 1.3c1 .4 2 1 2.7 1.9.8.9 1.2 2 1.2 3.5 0 1.3-.3 2.5-1 3.6-.8 1-1.8 1.8-3.3 2.5-1.4.6-3.1.9-5.2.9zm21.2-9.2l-3 3.1v5.7h-5.1v-22.4h5.1v10.5l10-10.5h5.7l-9.3 10L617 182h-6l-7.2-8.8zm15.5-13.6h5.2V182h-5.1v-22.4zm10.5 0h5.2v18.2h11.3v4.2h-16.5v-22.4zm19.4 0h5.1v18.2h11.3v4.2H649v-22.4zm26.5 22.8c-1.8 0-3.5-.3-5.1-.7-1.7-.5-3-1.1-4-2l1.8-3.8a12.8 12.8 0 007.4 2.3c1.4 0 2.5-.2 3.2-.6.7-.5 1-1 1-1.8 0-.5-.2-1-.6-1.3-.4-.4-1-.6-1.6-.9l-2.6-.7-4.2-1.2c-1-.4-2-1-2.8-2-.8-.8-1.2-2-1.2-3.5 0-1.3.4-2.5 1-3.5a7 7 0 013.3-2.6 17.2 17.2 0 019.4-.4c1.3.4 2.5.9 3.6 1.5l-1.6 4c-2.1-1.2-4.2-1.8-6.3-1.8a6 6 0 00-3.2.7c-.7.4-1 1-1 1.8s.4 1.4 1.2 1.8c.8.3 2 .7 3.7 1l4.1 1.3c1.1.4 2 1 2.8 1.9.8.9 1.2 2 1.2 3.5 0 1.3-.3 2.5-1 3.6-.8 1-1.8 1.8-3.3 2.5-1.4.6-3.1.9-5.2.9z" fill="#D9DAD7"/></svg>