<svg width="717" height="215" viewBox="0 0 717 215" fill="none" xmlns="http://www.w3.org/2000/svg">
<g id="Group 55">
<path id="Vector 1" d="M716.5 0L0 215V0H716.5Z" fill="#3E4A61"/>
<path id="BACKEND CLOUD SKILLS" opacity="0.6" d="M54.104 49.352C55.384 49.7573 56.3867 50.44 57.112 51.4C57.8373 52.3387 58.2 53.5013 58.2 54.888C58.2 56.8507 57.432 58.3653 55.896 59.432C54.3813 60.4773 52.1627 61 49.24 61H37.656V38.6H48.6C51.3307 38.6 53.4213 39.1227 54.872 40.168C56.344 41.2133 57.08 42.632 57.08 44.424C57.08 45.512 56.8133 46.4827 56.28 47.336C55.768 48.1893 55.0427 48.8613 54.104 49.352ZM42.808 42.504V47.784H47.96C49.24 47.784 50.2107 47.56 50.872 47.112C51.5333 46.664 51.864 46.0027 51.864 45.128C51.864 44.2533 51.5333 43.6027 50.872 43.176C50.2107 42.728 49.24 42.504 47.96 42.504H42.808ZM48.856 57.096C50.2213 57.096 51.2453 56.872 51.928 56.424C52.632 55.976 52.984 55.2827 52.984 54.344C52.984 52.488 51.608 51.56 48.856 51.56H42.808V57.096H48.856ZM76.8768 56.2H66.4768L64.4928 61H59.1807L69.1648 38.6H74.2848L84.3008 61H78.8608L76.8768 56.2ZM75.2448 52.264L71.6928 43.688L68.1408 52.264H75.2448ZM97.0323 61.384C94.7496 61.384 92.6803 60.8933 90.8243 59.912C88.9896 58.9093 87.5389 57.5333 86.4723 55.784C85.4269 54.0133 84.9043 52.0187 84.9043 49.8C84.9043 47.5813 85.4269 45.5973 86.4723 43.848C87.5389 42.0773 88.9896 40.7013 90.8243 39.72C92.6803 38.7173 94.7603 38.216 97.0643 38.216C99.0056 38.216 100.755 38.5573 102.312 39.24C103.891 39.9227 105.214 40.904 106.28 42.184L102.952 45.256C101.438 43.5067 99.5603 42.632 97.3203 42.632C95.9336 42.632 94.6963 42.9413 93.6083 43.56C92.5203 44.1573 91.6669 45 91.0483 46.088C90.4509 47.176 90.1523 48.4133 90.1523 49.8C90.1523 51.1867 90.4509 52.424 91.0483 53.512C91.6669 54.6 92.5203 55.4533 93.6083 56.072C94.6963 56.6693 95.9336 56.968 97.3203 56.968C99.5603 56.968 101.438 56.0827 102.952 54.312L106.28 57.384C105.214 58.6853 103.891 59.6773 102.312 60.36C100.734 61.0427 98.9736 61.384 97.0323 61.384ZM117.941 52.2L114.933 55.336V61H109.781V38.6H114.933V49.064L124.853 38.6H130.613L121.333 48.584L131.157 61H125.109L117.941 52.2ZM150.812 56.84V61H133.469V38.6H150.397V42.76H138.621V47.624H149.021V51.656H138.621V56.84H150.812ZM175.481 38.6V61H171.225L160.057 47.4V61H154.937V38.6H159.225L170.361 52.2V38.6H175.481ZM180.781 38.6H190.957C193.389 38.6 195.533 39.0693 197.389 40.008C199.266 40.9253 200.717 42.2267 201.741 43.912C202.786 45.5973 203.309 47.56 203.309 49.8C203.309 52.04 202.786 54.0027 201.741 55.688C200.717 57.3733 199.266 58.6853 197.389 59.624C195.533 60.5413 193.389 61 190.957 61H180.781V38.6ZM190.701 56.744C192.941 56.744 194.722 56.1253 196.045 54.888C197.389 53.6293 198.061 51.9333 198.061 49.8C198.061 47.6667 197.389 45.9813 196.045 44.744C194.722 43.4853 192.941 42.856 190.701 42.856H185.965V56.744H190.701ZM48.376 100.384C46.0933 100.384 44.024 99.8933 42.168 98.912C40.3333 97.9093 38.8827 96.5333 37.816 94.784C36.7707 93.0133 36.248 91.0187 36.248 88.8C36.248 86.5813 36.7707 84.5973 37.816 82.848C38.8827 81.0773 40.3333 79.7013 42.168 78.72C44.024 77.7173 46.104 77.216 48.408 77.216C50.3493 77.216 52.0987 77.5573 53.656 78.24C55.2347 78.9227 56.5573 79.904 57.624 81.184L54.296 84.256C52.7813 82.5067 50.904 81.632 48.664 81.632C47.2773 81.632 46.04 81.9413 44.952 82.56C43.864 83.1573 43.0107 84 42.392 85.088C41.7947 86.176 41.496 87.4133 41.496 88.8C41.496 90.1867 41.7947 91.424 42.392 92.512C43.0107 93.6 43.864 94.4533 44.952 95.072C46.04 95.6693 47.2773 95.968 48.664 95.968C50.904 95.968 52.7813 95.0827 54.296 93.312L57.624 96.384C56.5573 97.6853 55.2347 98.6773 53.656 99.36C52.0773 100.043 50.3173 100.384 48.376 100.384ZM61.1248 77.6H66.3088V95.776H77.5408V100H61.1248V77.6ZM90.9103 100.384C88.5849 100.384 86.4836 99.8827 84.6063 98.88C82.7503 97.8773 81.2889 96.5013 80.2223 94.752C79.1769 92.9813 78.6543 90.9973 78.6543 88.8C78.6543 86.6027 79.1769 84.6293 80.2223 82.88C81.2889 81.1093 82.7503 79.7227 84.6063 78.72C86.4836 77.7173 88.5849 77.216 90.9103 77.216C93.2356 77.216 95.3263 77.7173 97.1823 78.72C99.0383 79.7227 100.5 81.1093 101.566 82.88C102.633 84.6293 103.166 86.6027 103.166 88.8C103.166 90.9973 102.633 92.9813 101.566 94.752C100.5 96.5013 99.0383 97.8773 97.1823 98.88C95.3263 99.8827 93.2356 100.384 90.9103 100.384ZM90.9103 95.968C92.2329 95.968 93.4276 95.6693 94.4943 95.072C95.5609 94.4533 96.3929 93.6 96.9903 92.512C97.6089 91.424 97.9183 90.1867 97.9183 88.8C97.9183 87.4133 97.6089 86.176 96.9903 85.088C96.3929 84 95.5609 83.1573 94.4943 82.56C93.4276 81.9413 92.2329 81.632 90.9103 81.632C89.5876 81.632 88.3929 81.9413 87.3263 82.56C86.2596 83.1573 85.4169 84 84.7983 85.088C84.2009 86.176 83.9023 87.4133 83.9023 88.8C83.9023 90.1867 84.2009 91.424 84.7983 92.512C85.4169 93.6 86.2596 94.4533 87.3263 95.072C88.3929 95.6693 89.5876 95.968 90.9103 95.968ZM117.014 100.384C113.814 100.384 111.318 99.4987 109.526 97.728C107.756 95.9573 106.87 93.4293 106.87 90.144V77.6H112.054V89.952C112.054 93.9627 113.718 95.968 117.046 95.968C118.668 95.968 119.905 95.488 120.758 94.528C121.612 93.5467 122.038 92.0213 122.038 89.952V77.6H127.158V90.144C127.158 93.4293 126.262 95.9573 124.47 97.728C122.7 99.4987 120.214 100.384 117.014 100.384ZM132.281 77.6H142.457C144.889 77.6 147.033 78.0693 148.889 79.008C150.766 79.9253 152.217 81.2267 153.241 82.912C154.286 84.5973 154.809 86.56 154.809 88.8C154.809 91.04 154.286 93.0027 153.241 94.688C152.217 96.3733 150.766 97.6853 148.889 98.624C147.033 99.5413 144.889 100 142.457 100H132.281V77.6ZM142.201 95.744C144.441 95.744 146.222 95.1253 147.545 93.888C148.889 92.6293 149.561 90.9333 149.561 88.8C149.561 86.6667 148.889 84.9813 147.545 83.744C146.222 82.4853 144.441 81.856 142.201 81.856H137.465V95.744H142.201ZM45.016 139.384C43.2453 139.384 41.528 139.149 39.864 138.68C38.2213 138.189 36.8987 137.56 35.896 136.792L37.656 132.888C38.616 133.592 39.7573 134.157 41.08 134.584C42.4027 135.011 43.7253 135.224 45.048 135.224C46.52 135.224 47.608 135.011 48.312 134.584C49.016 134.136 49.368 133.549 49.368 132.824C49.368 132.291 49.1547 131.853 48.728 131.512C48.3227 131.149 47.7893 130.861 47.128 130.648C46.488 130.435 45.6133 130.2 44.504 129.944C42.7973 129.539 41.4 129.133 40.312 128.728C39.224 128.323 38.2853 127.672 37.496 126.776C36.728 125.88 36.344 124.685 36.344 123.192C36.344 121.891 36.696 120.717 37.4 119.672C38.104 118.605 39.16 117.763 40.568 117.144C41.9973 116.525 43.736 116.216 45.784 116.216C47.2133 116.216 48.6107 116.387 49.976 116.728C51.3413 117.069 52.536 117.56 53.56 118.2L51.96 122.136C49.8907 120.963 47.8213 120.376 45.752 120.376C44.3013 120.376 43.224 120.611 42.52 121.08C41.8373 121.549 41.496 122.168 41.496 122.936C41.496 123.704 41.8907 124.28 42.68 124.664C43.4907 125.027 44.7173 125.389 46.36 125.752C48.0667 126.157 49.464 126.563 50.552 126.968C51.64 127.373 52.568 128.013 53.336 128.888C54.1253 129.763 54.52 130.947 54.52 132.44C54.52 133.72 54.1573 134.893 53.432 135.96C52.728 137.005 51.6613 137.837 50.232 138.456C48.8027 139.075 47.064 139.384 45.016 139.384ZM66.2223 130.2L63.2143 133.336V139H58.0623V116.6H63.2143V127.064L73.1343 116.6H78.8943L69.6143 126.584L79.4383 139H73.3903L66.2223 130.2ZM81.7498 116.6H86.9338V139H81.7498V116.6ZM92.2498 116.6H97.4338V134.776H108.666V139H92.2498V116.6ZM111.562 116.6H116.746V134.776H127.978V139H111.562V116.6ZM138.11 139.384C136.339 139.384 134.622 139.149 132.958 138.68C131.315 138.189 129.992 137.56 128.99 136.792L130.75 132.888C131.71 133.592 132.851 134.157 134.174 134.584C135.496 135.011 136.819 135.224 138.142 135.224C139.614 135.224 140.702 135.011 141.406 134.584C142.11 134.136 142.462 133.549 142.462 132.824C142.462 132.291 142.248 131.853 141.822 131.512C141.416 131.149 140.883 130.861 140.222 130.648C139.582 130.435 138.707 130.2 137.598 129.944C135.891 129.539 134.494 129.133 133.406 128.728C132.318 128.323 131.379 127.672 130.59 126.776C129.822 125.88 129.438 124.685 129.438 123.192C129.438 121.891 129.79 120.717 130.494 119.672C131.198 118.605 132.254 117.763 133.662 117.144C135.091 116.525 136.83 116.216 138.878 116.216C140.307 116.216 141.704 116.387 143.07 116.728C144.435 117.069 145.63 117.56 146.654 118.2L145.054 122.136C142.984 120.963 140.915 120.376 138.846 120.376C137.395 120.376 136.318 120.611 135.614 121.08C134.931 121.549 134.59 122.168 134.59 122.936C134.59 123.704 134.984 124.28 135.774 124.664C136.584 125.027 137.811 125.389 139.454 125.752C141.16 126.157 142.558 126.563 143.646 126.968C144.734 127.373 145.662 128.013 146.43 128.888C147.219 129.763 147.614 130.947 147.614 132.44C147.614 133.72 147.251 134.893 146.526 135.96C145.822 137.005 144.755 137.837 143.326 138.456C141.896 139.075 140.158 139.384 138.11 139.384Z" fill="#D9DAD7"/>
</g>
</svg>
