<svg width="861" height="1024" viewBox="0 0 861 1024" fill="none" xmlns="http://www.w3.org/2000/svg">
<g id="Group 1">
<g id="Polygon 3" filter="url(#filter0_f)">
<path d="M438 190L836 1022H25L362 190H438Z" fill="url(#paint0_radial)"/>
</g>
<g id="Union">
<path fill-rule="evenodd" clip-rule="evenodd" d="M403 138.092V-297H398V138.072C390.645 138.957 384.766 143.813 383.377 150.044H367.127L347.4 173.993H347.301V174.112L346.874 174.631L347.301 174.753V189.826H399.895H452.489V174.753L452.917 174.631L452.489 174.112V173.993H452.391L432.664 150.044H417.465C416.086 143.857 410.281 139.026 403 138.092Z" fill="#D9DAD7"/>
<path d="M403 -297H403.5V-297.5H403V-297ZM403 138.092H402.5V138.532L402.936 138.588L403 138.092ZM398 -297V-297.5H397.5V-297H398ZM398 138.072L398.06 138.569L398.5 138.516V138.072H398ZM383.377 150.044V150.544H383.778L383.865 150.153L383.377 150.044ZM367.127 150.044V149.544H366.891L366.741 149.727L367.127 150.044ZM347.4 173.993V174.493H347.636L347.786 174.311L347.4 173.993ZM347.301 173.993V173.493H346.801V173.993H347.301ZM347.301 174.112L347.687 174.43L347.801 174.292V174.112H347.301ZM346.874 174.631L346.488 174.313L346.004 174.901L346.737 175.111L346.874 174.631ZM347.301 174.753H347.801V174.376L347.439 174.273L347.301 174.753ZM347.301 189.826H346.801V190.326H347.301V189.826ZM452.489 189.826V190.326H452.989V189.826H452.489ZM452.489 174.753L452.352 174.273L451.989 174.376V174.753H452.489ZM452.917 174.631L453.054 175.111L453.787 174.901L453.302 174.313L452.917 174.631ZM452.489 174.112H451.989V174.292L452.104 174.43L452.489 174.112ZM452.489 173.993H452.989V173.493H452.489V173.993ZM452.391 173.993L452.005 174.311L452.155 174.493H452.391V173.993ZM432.664 150.044L433.05 149.727L432.9 149.544H432.664V150.044ZM417.465 150.044L416.977 150.153L417.065 150.544H417.465V150.044ZM402.5 -297V138.092H403.5V-297H402.5ZM398 -296.5H403V-297.5H398V-296.5ZM398.5 138.072V-297H397.5V138.072H398.5ZM397.94 137.576C390.415 138.481 384.333 143.46 382.889 149.936L383.865 150.153C385.2 144.166 390.875 139.433 398.06 138.569L397.94 137.576ZM383.377 149.544H367.127V150.544H383.377V149.544ZM366.741 149.727L347.014 173.675L347.786 174.311L367.513 150.362L366.741 149.727ZM347.4 173.493H347.301V174.493H347.4V173.493ZM346.801 173.993V174.112H347.801V173.993H346.801ZM346.915 173.794L346.488 174.313L347.26 174.949L347.687 174.43L346.915 173.794ZM346.737 175.111L347.164 175.234L347.439 174.273L347.012 174.15L346.737 175.111ZM346.801 174.753V189.826H347.801V174.753H346.801ZM347.301 190.326H399.895V189.326H347.301V190.326ZM399.895 190.326H452.489V189.326H399.895V190.326ZM452.989 189.826V174.753H451.989V189.826H452.989ZM452.627 175.234L453.054 175.111L452.779 174.15L452.352 174.273L452.627 175.234ZM453.302 174.313L452.875 173.794L452.104 174.43L452.531 174.949L453.302 174.313ZM452.989 174.112V173.993H451.989V174.112H452.989ZM452.489 173.493H452.391V174.493H452.489V173.493ZM452.777 173.675L433.05 149.727L432.278 150.362L452.005 174.311L452.777 173.675ZM432.664 149.544H417.465V150.544H432.664V149.544ZM417.953 149.936C416.52 143.506 410.514 138.552 403.064 137.596L402.936 138.588C410.049 139.501 415.652 144.209 416.977 150.153L417.953 149.936Z" fill="#DD6B4D"/>
</g>
</g>
<defs>
<filter id="filter0_f" x="0" y="165" width="861" height="882" filterUnits="userSpaceOnUse" color-interpolation-filters="sRGB">
<feFlood flood-opacity="0" result="BackgroundImageFix"/>
<feBlend mode="normal" in="SourceGraphic" in2="BackgroundImageFix" result="shape"/>
<feGaussianBlur stdDeviation="12.5" result="effect1_foregroundBlur"/>
</filter>
<radialGradient id="paint0_radial" cx="0" cy="0" r="1" gradientUnits="userSpaceOnUse" gradientTransform="translate(405.5 217.5) rotate(90.4365) scale(787.523 767.646)">
<stop stop-color="#E6C3BA"/>
<stop offset="0.427819" stop-color="#C4C4C4"/>
<stop offset="0.993516" stop-color="#3E4A61"/>
</radialGradient>
</defs>
</svg>
