<svg width="717" height="215" viewBox="0 0 717 215" fill="none" xmlns="http://www.w3.org/2000/svg"><path d="M716.5 0L0 215V0h716.5z" fill="#1A2639"/><path opacity=".5" d="M43.8 41.8v5.9h10.4v4.1H43.8V60h-5.1V37.6h16.9v4.2H43.8zM73.4 60L69 53.8h-4.7V60H59V37.6h9.7c2 0 3.7.3 5.1 1 1.5.7 2.6 1.6 3.4 2.8a7.8 7.8 0 011.2 4.3c0 1.7-.4 3.1-1.2 4.3-.8 1.2-2 2.2-3.4 2.8l5 7.2h-5.5zm-.1-14.3c0-1.2-.4-2.2-1.2-2.9-.9-.6-2-1-3.6-1h-4.2v7.8h4.2c1.6 0 2.7-.3 3.6-1 .8-.7 1.2-1.6 1.2-2.9zm20.2 14.7c-2.4 0-4.5-.5-6.3-1.5-1.9-1-3.3-2.4-4.4-4.1-1-1.8-1.6-3.8-1.6-6a11.3 11.3 0 016-10c1.8-1 4-1.6 6.3-1.6s4.4.5 6.2 1.5a11.3 11.3 0 016 10.1 11.3 11.3 0 01-6 10 13 13 0 01-6.2 1.6zm0-4.4c1.3 0 2.5-.3 3.6-1 1-.5 1.9-1.4 2.5-2.5.6-1 .9-2.3.9-3.7 0-1.4-.3-2.6-1-3.7-.5-1.1-1.4-2-2.4-2.5a7 7 0 00-3.6-1 7 7 0 00-6.1 3.5 7.6 7.6 0 000 7.4 6.8 6.8 0 006 3.5zm36.7-18.4V60h-4.3l-11.2-13.6V60h-5V37.6h4.2L125 51.2V37.6h5.2zm10 4.2h-7.3v-4.2h19.6v4.2h-7.2V60H140V41.8zM56 94.8V99H38.7V76.6h16.9v4.2H43.8v4.8h10.4v4H43.8v5.2H56zm24.7-18.2V99h-4.3L65.2 85.4V99h-5V76.6h4.2l11.1 13.6V76.6h5.2zm5.3 0H96c2.5 0 4.6.5 6.5 1.4a11 11 0 016 9.8 10.4 10.4 0 01-6 9.8c-1.9 1-4 1.4-6.5 1.4H86V76.6zm9.9 18.1c2.2 0 4-.6 5.3-1.8 1.4-1.3 2-3 2-5.1 0-2.1-.6-3.8-2-5a7.4 7.4 0 00-5.3-2h-4.7v14h4.7zM46 138.4c-1.8 0-3.5-.3-5.1-.7-1.7-.5-3-1.1-4-2l1.8-3.8a12.9 12.9 0 007.4 2.3c1.4 0 2.5-.2 3.2-.6.7-.5 1-1 1-1.8 0-.5-.1-1-.6-1.3-.4-.4-1-.6-1.6-.9l-2.6-.7-4.2-1.2c-1-.4-2-1-2.8-2-.8-.8-1.2-2-1.2-3.5 0-1.3.4-2.5 1.1-3.5a7 7 0 013.2-2.6 17.2 17.2 0 019.4-.4c1.3.4 2.5.9 3.6 1.5l-1.6 4c-2.1-1.2-4.2-1.8-6.2-1.8a6 6 0 00-3.3.7c-.7.4-1 1-1 1.8s.4 1.4 1.2 1.8c.8.3 2 .7 3.7 1l4.2 1.3c1 .4 2 1 2.7 1.9.8.9 1.2 2 1.2 3.5 0 1.3-.3 2.5-1 3.6-.8 1-1.8 1.8-3.3 2.5-1.4.6-3.1.9-5.2.9zm21.2-9.2l-3 3.1v5.7h-5.1v-22.4h5.1v10.5l10-10.5h5.7l-9.3 10 9.8 12.4h-6l-7.2-8.8zm15.5-13.6H88V138h-5.2v-22.4zm10.5 0h5.2v18.2h11.3v4.2H93.2v-22.4zm19.4 0h5.1v18.2H129v4.2h-16.4v-22.4zm26.5 22.8c-1.8 0-3.5-.3-5.1-.7-1.7-.5-3-1.1-4-2l1.8-3.8a12.8 12.8 0 007.4 2.3c1.4 0 2.5-.2 3.2-.6.7-.5 1-1 1-1.8 0-.5-.2-1-.6-1.3-.4-.4-1-.6-1.6-.9l-2.6-.7-4.2-1.2c-1-.4-2-1-2.8-2-.8-.8-1.2-2-1.2-3.5 0-1.3.4-2.5 1-3.5a7 7 0 013.3-2.6 17.2 17.2 0 019.4-.4c1.3.4 2.5.9 3.6 1.5l-1.6 4c-2.1-1.2-4.2-1.8-6.3-1.8a6 6 0 00-3.2.7c-.7.4-1 1-1 1.8s.4 1.4 1.2 1.8c.8.3 2 .7 3.7 1l4.1 1.3c1.1.4 2 1 2.8 1.9.8.9 1.2 2 1.2 3.5 0 1.3-.3 2.5-1 3.6-.8 1-1.8 1.8-3.3 2.5-1.4.6-3.1.9-5.2.9z" fill="#D9DAD7"/></svg>