<svg width="717" height="215" viewBox="0 0 717 215" fill="none" xmlns="http://www.w3.org/2000/svg">
<g id="Group 52">
<path id="Vector 3" d="M716.5 0L0 215V0H716.5Z" fill="#1A2639"/>
<path id="FRONT END SKILLS" opacity="0.5" d="M43.84 41.76V47.68H54.208V51.84H43.84V60H38.656V37.6H55.584V41.76H43.84ZM73.3655 60L69.0455 53.76H68.7895H64.2775V60H59.0935V37.6H68.7895C70.7735 37.6 72.4908 37.9307 73.9415 38.592C75.4135 39.2533 76.5442 40.192 77.3335 41.408C78.1228 42.624 78.5175 44.064 78.5175 45.728C78.5175 47.392 78.1122 48.832 77.3015 50.048C76.5122 51.2427 75.3815 52.16 73.9095 52.8L78.9335 60H73.3655ZM73.2695 45.728C73.2695 44.4693 72.8642 43.5093 72.0535 42.848C71.2428 42.1653 70.0588 41.824 68.5015 41.824H64.2775V49.632H68.5015C70.0588 49.632 71.2428 49.2907 72.0535 48.608C72.8642 47.9253 73.2695 46.9653 73.2695 45.728ZM93.4728 60.384C91.1474 60.384 89.0461 59.8827 87.1688 58.88C85.3128 57.8773 83.8514 56.5013 82.7848 54.752C81.7394 52.9813 81.2168 50.9973 81.2168 48.8C81.2168 46.6027 81.7394 44.6293 82.7848 42.88C83.8514 41.1093 85.3128 39.7227 87.1688 38.72C89.0461 37.7173 91.1474 37.216 93.4728 37.216C95.7981 37.216 97.8888 37.7173 99.7448 38.72C101.601 39.7227 103.062 41.1093 104.129 42.88C105.195 44.6293 105.729 46.6027 105.729 48.8C105.729 50.9973 105.195 52.9813 104.129 54.752C103.062 56.5013 101.601 57.8773 99.7448 58.88C97.8888 59.8827 95.7981 60.384 93.4728 60.384ZM93.4728 55.968C94.7954 55.968 95.9901 55.6693 97.0568 55.072C98.1234 54.4533 98.9554 53.6 99.5528 52.512C100.171 51.424 100.481 50.1867 100.481 48.8C100.481 47.4133 100.171 46.176 99.5528 45.088C98.9554 44 98.1234 43.1573 97.0568 42.56C95.9901 41.9413 94.7954 41.632 93.4728 41.632C92.1501 41.632 90.9554 41.9413 89.8888 42.56C88.8221 43.1573 87.9794 44 87.3608 45.088C86.7634 46.176 86.4648 47.4133 86.4648 48.8C86.4648 50.1867 86.7634 51.424 87.3608 52.512C87.9794 53.6 88.8221 54.4533 89.8888 55.072C90.9554 55.6693 92.1501 55.968 93.4728 55.968ZM130.169 37.6V60H125.913L114.745 46.4V60H109.625V37.6H113.913L125.049 51.2V37.6H130.169ZM140.109 41.824H132.941V37.6H152.461V41.824H145.293V60H140.109V41.824ZM56 94.84V99H38.656V76.6H55.584V80.76H43.808V85.624H54.208V89.656H43.808V94.84H56ZM80.6688 76.6V99H76.4128L65.2448 85.4V99H60.1248V76.6H64.4128L75.5487 90.2V76.6H80.6688ZM85.9685 76.6H96.1445C98.5765 76.6 100.721 77.0693 102.577 78.008C104.454 78.9253 105.905 80.2267 106.929 81.912C107.974 83.5973 108.497 85.56 108.497 87.8C108.497 90.04 107.974 92.0027 106.929 93.688C105.905 95.3733 104.454 96.6853 102.577 97.624C100.721 98.5413 98.5765 99 96.1445 99H85.9685V76.6ZM95.8885 94.744C98.1285 94.744 99.9098 94.1253 101.233 92.888C102.577 91.6293 103.249 89.9333 103.249 87.8C103.249 85.6667 102.577 83.9813 101.233 82.744C99.9098 81.4853 98.1285 80.856 95.8885 80.856H91.1525V94.744H95.8885ZM46.016 138.384C44.2453 138.384 42.528 138.149 40.864 137.68C39.2213 137.189 37.8987 136.56 36.896 135.792L38.656 131.888C39.616 132.592 40.7573 133.157 42.08 133.584C43.4027 134.011 44.7253 134.224 46.048 134.224C47.52 134.224 48.608 134.011 49.312 133.584C50.016 133.136 50.368 132.549 50.368 131.824C50.368 131.291 50.1547 130.853 49.728 130.512C49.3227 130.149 48.7893 129.861 48.128 129.648C47.488 129.435 46.6133 129.2 45.504 128.944C43.7973 128.539 42.4 128.133 41.312 127.728C40.224 127.323 39.2853 126.672 38.496 125.776C37.728 124.88 37.344 123.685 37.344 122.192C37.344 120.891 37.696 119.717 38.4 118.672C39.104 117.605 40.16 116.763 41.568 116.144C42.9973 115.525 44.736 115.216 46.784 115.216C48.2133 115.216 49.6107 115.387 50.976 115.728C52.3413 116.069 53.536 116.56 54.56 117.2L52.96 121.136C50.8907 119.963 48.8213 119.376 46.752 119.376C45.3013 119.376 44.224 119.611 43.52 120.08C42.8373 120.549 42.496 121.168 42.496 121.936C42.496 122.704 42.8907 123.28 43.68 123.664C44.4907 124.027 45.7173 124.389 47.36 124.752C49.0667 125.157 50.464 125.563 51.552 125.968C52.64 126.373 53.568 127.013 54.336 127.888C55.1253 128.763 55.52 129.947 55.52 131.44C55.52 132.72 55.1573 133.893 54.432 134.96C53.728 136.005 52.6613 136.837 51.232 137.456C49.8027 138.075 48.064 138.384 46.016 138.384ZM67.2223 129.2L64.2143 132.336V138H59.0623V115.6H64.2143V126.064L74.1343 115.6H79.8943L70.6143 125.584L80.4383 138H74.3903L67.2223 129.2ZM82.7498 115.6H87.9338V138H82.7498V115.6ZM93.2498 115.6H98.4338V133.776H109.666V138H93.2498V115.6ZM112.562 115.6H117.746V133.776H128.978V138H112.562V115.6ZM139.11 138.384C137.339 138.384 135.622 138.149 133.958 137.68C132.315 137.189 130.992 136.56 129.99 135.792L131.75 131.888C132.71 132.592 133.851 133.157 135.174 133.584C136.496 134.011 137.819 134.224 139.142 134.224C140.614 134.224 141.702 134.011 142.406 133.584C143.11 133.136 143.462 132.549 143.462 131.824C143.462 131.291 143.248 130.853 142.822 130.512C142.416 130.149 141.883 129.861 141.222 129.648C140.582 129.435 139.707 129.2 138.598 128.944C136.891 128.539 135.494 128.133 134.406 127.728C133.318 127.323 132.379 126.672 131.59 125.776C130.822 124.88 130.438 123.685 130.438 122.192C130.438 120.891 130.79 119.717 131.494 118.672C132.198 117.605 133.254 116.763 134.662 116.144C136.091 115.525 137.83 115.216 139.878 115.216C141.307 115.216 142.704 115.387 144.07 115.728C145.435 116.069 146.63 116.56 147.654 117.2L146.054 121.136C143.984 119.963 141.915 119.376 139.846 119.376C138.395 119.376 137.318 119.611 136.614 120.08C135.931 120.549 135.59 121.168 135.59 121.936C135.59 122.704 135.984 123.28 136.774 123.664C137.584 124.027 138.811 124.389 140.454 124.752C142.16 125.157 143.558 125.563 144.646 125.968C145.734 126.373 146.662 127.013 147.43 127.888C148.219 128.763 148.614 129.947 148.614 131.44C148.614 132.72 148.251 133.893 147.526 134.96C146.822 136.005 145.755 136.837 144.326 137.456C142.896 138.075 141.158 138.384 139.11 138.384Z" fill="#D9DAD7"/>
</g>
</svg>
