<svg width="265" height="812" viewBox="0 0 265 812" fill="none" xmlns="http://www.w3.org/2000/svg">
<g id="Group 2">
<g id="Polygon 3" filter="url(#filter0_f)">
<path d="M150 197L240 812H25L106 197H150Z" fill="url(#paint0_radial)"/>
<path d="M106.439 197.5H149.568L239.421 811.5H25.5702L106.439 197.5Z" stroke="white"/>
</g>
<g id="Union">
<path fill-rule="evenodd" clip-rule="evenodd" d="M129.25 154.5V-222.002H124.25V154.5H129.25ZM138.264 164.744H148.44L161.648 184.004H161.714V184.1L162 184.517L161.714 184.616V196.738H126.5H126.5H91.2856V184.616L90.9998 184.517L91.2856 184.1V184.004H91.3517L104.56 164.744H115.44C116.47 159.193 121.188 154.999 126.852 154.999C132.516 154.999 137.234 159.193 138.264 164.744Z" fill="#D9DAD7"/>
<path d="M129.25 -222.002H129.75V-222.502H129.25V-222.002ZM129.25 154.5V155H129.75V154.5H129.25ZM124.25 -222.002V-222.502H123.75V-222.002H124.25ZM124.25 154.5H123.75V155H124.25V154.5ZM148.44 164.744L148.852 164.461L148.703 164.244H148.44V164.744ZM138.264 164.744L137.772 164.835L137.848 165.244H138.264V164.744ZM161.648 184.004L161.235 184.287L161.384 184.504H161.648V184.004ZM161.714 184.004H162.214V183.504H161.714V184.004ZM161.714 184.1H161.214V184.255L161.301 184.383L161.714 184.1ZM162 184.517L162.163 184.99L162.784 184.776L162.412 184.234L162 184.517ZM161.714 184.616L161.551 184.143L161.214 184.259V184.616H161.714ZM161.714 196.738V197.238H162.214V196.738H161.714ZM91.2856 196.738H90.7856V197.238H91.2856V196.738ZM91.2856 184.616H91.7856V184.259L91.4484 184.143L91.2856 184.616ZM90.9998 184.517L90.5874 184.234L90.2159 184.776L90.837 184.99L90.9998 184.517ZM91.2856 184.1L91.698 184.383L91.7856 184.255V184.1H91.2856ZM91.2856 184.004V183.504H90.7856V184.004H91.2856ZM91.3517 184.004V184.504H91.6151L91.7641 184.287L91.3517 184.004ZM104.56 164.744V164.244H104.296L104.147 164.461L104.56 164.744ZM115.44 164.744V165.244H115.856L115.932 164.835L115.44 164.744ZM128.75 -222.002V154.5H129.75V-222.002H128.75ZM124.25 -221.502H129.25V-222.502H124.25V-221.502ZM124.75 154.5V-222.002H123.75V154.5H124.75ZM129.25 154H124.25V155H129.25V154ZM148.44 164.244H138.264V165.244H148.44V164.244ZM162.06 183.721L148.852 164.461L148.028 165.027L161.235 184.287L162.06 183.721ZM161.714 183.504H161.648V184.504H161.714V183.504ZM162.214 184.1V184.004H161.214V184.1H162.214ZM162.412 184.234L162.126 183.817L161.301 184.383L161.587 184.8L162.412 184.234ZM161.877 185.088L162.163 184.99L161.837 184.044L161.551 184.143L161.877 185.088ZM162.214 196.738V184.616H161.214V196.738H162.214ZM126.5 197.238H161.714V196.238H126.5V197.238ZM126.5 197.238H126.5V196.238H126.5V197.238ZM91.2856 197.238H126.5V196.238H91.2856V197.238ZM90.7856 184.616V196.738H91.7856V184.616H90.7856ZM90.837 184.99L91.1229 185.088L91.4484 184.143L91.1625 184.044L90.837 184.99ZM90.8733 183.818L90.5874 184.234L91.4121 184.8L91.698 184.383L90.8733 183.818ZM90.7856 184.004V184.1H91.7856V184.004H90.7856ZM91.3517 183.504H91.2856V184.504H91.3517V183.504ZM104.147 164.461L90.9394 183.721L91.7641 184.287L104.972 165.027L104.147 164.461ZM115.44 164.244H104.56V165.244H115.44V164.244ZM126.852 154.499C120.931 154.499 116.019 158.881 114.948 164.653L115.932 164.835C116.921 159.505 121.445 155.499 126.852 155.499V154.499ZM138.755 164.653C137.684 158.881 132.773 154.499 126.852 154.499V155.499C132.259 155.499 136.783 159.505 137.772 164.835L138.755 164.653Z" fill="#DD6B4D"/>
</g>
</g>
<defs>
<filter id="filter0_f" x="0" y="172" width="265" height="665" filterUnits="userSpaceOnUse" color-interpolation-filters="sRGB">
<feFlood flood-opacity="0" result="BackgroundImageFix"/>
<feBlend mode="normal" in="SourceGraphic" in2="BackgroundImageFix" result="shape"/>
<feGaussianBlur stdDeviation="12.5" result="effect1_foregroundBlur"/>
</filter>
<radialGradient id="paint0_radial" cx="0" cy="0" r="1" gradientUnits="userSpaceOnUse" gradientTransform="translate(132 197.001) rotate(89.9534) scale(614.999 215)">
<stop offset="0.00520833" stop-color="#E5C3BA"/>
<stop offset="0.322917" stop-color="#C4C4C4"/>
<stop offset="1" stop-color="#3E4A61"/>
</radialGradient>
</defs>
</svg>
