<svg width="717" height="215" viewBox="0 0 717 215" fill="none" xmlns="http://www.w3.org/2000/svg">
<g id="Group 53">
<path id="Vector 3" d="M0 215L717 0V215H0Z" fill="#D9DAD7"/>
<path id="SYSTEM SKILLS" d="M530.016 124.384C528.245 124.384 526.528 124.149 524.864 123.68C523.221 123.189 521.899 122.56 520.896 121.792L522.656 117.888C523.616 118.592 524.757 119.157 526.08 119.584C527.403 120.011 528.725 120.224 530.048 120.224C531.52 120.224 532.608 120.011 533.312 119.584C534.016 119.136 534.368 118.549 534.368 117.824C534.368 117.291 534.155 116.853 533.728 116.512C533.323 116.149 532.789 115.861 532.128 115.648C531.488 115.435 530.613 115.2 529.504 114.944C527.797 114.539 526.4 114.133 525.312 113.728C524.224 113.323 523.285 112.672 522.496 111.776C521.728 110.88 521.344 109.685 521.344 108.192C521.344 106.891 521.696 105.717 522.4 104.672C523.104 103.605 524.16 102.763 525.568 102.144C526.997 101.525 528.736 101.216 530.784 101.216C532.213 101.216 533.611 101.387 534.976 101.728C536.341 102.069 537.536 102.56 538.56 103.2L536.96 107.136C534.891 105.963 532.821 105.376 530.752 105.376C529.301 105.376 528.224 105.611 527.52 106.08C526.837 106.549 526.496 107.168 526.496 107.936C526.496 108.704 526.891 109.28 527.68 109.664C528.491 110.027 529.717 110.389 531.36 110.752C533.067 111.157 534.464 111.563 535.552 111.968C536.64 112.373 537.568 113.013 538.336 113.888C539.125 114.763 539.52 115.947 539.52 117.44C539.52 118.72 539.157 119.893 538.432 120.96C537.728 122.005 536.661 122.837 535.232 123.456C533.803 124.075 532.064 124.384 530.016 124.384ZM554.946 116.064V124H549.762V116L541.09 101.6H546.594L552.578 111.552L558.562 101.6H563.65L554.946 116.064ZM574.31 124.384C572.539 124.384 570.822 124.149 569.158 123.68C567.515 123.189 566.192 122.56 565.19 121.792L566.95 117.888C567.91 118.592 569.051 119.157 570.374 119.584C571.696 120.011 573.019 120.224 574.342 120.224C575.814 120.224 576.902 120.011 577.606 119.584C578.31 119.136 578.662 118.549 578.662 117.824C578.662 117.291 578.448 116.853 578.022 116.512C577.616 116.149 577.083 115.861 576.422 115.648C575.782 115.435 574.907 115.2 573.798 114.944C572.091 114.539 570.694 114.133 569.606 113.728C568.518 113.323 567.579 112.672 566.79 111.776C566.022 110.88 565.638 109.685 565.638 108.192C565.638 106.891 565.99 105.717 566.694 104.672C567.398 103.605 568.454 102.763 569.862 102.144C571.291 101.525 573.03 101.216 575.078 101.216C576.507 101.216 577.904 101.387 579.27 101.728C580.635 102.069 581.83 102.56 582.854 103.2L581.254 107.136C579.184 105.963 577.115 105.376 575.046 105.376C573.595 105.376 572.518 105.611 571.814 106.08C571.131 106.549 570.79 107.168 570.79 107.936C570.79 108.704 571.184 109.28 571.974 109.664C572.784 110.027 574.011 110.389 575.654 110.752C577.36 111.157 578.758 111.563 579.846 111.968C580.934 112.373 581.862 113.013 582.63 113.888C583.419 114.763 583.814 115.947 583.814 117.44C583.814 118.72 583.451 119.893 582.726 120.96C582.022 122.005 580.955 122.837 579.526 123.456C578.096 124.075 576.358 124.384 574.31 124.384ZM593.284 105.824H586.116V101.6H605.636V105.824H598.468V124H593.284V105.824ZM627.369 119.84V124H610.025V101.6H626.953V105.76H615.177V110.624H625.577V114.656H615.177V119.84H627.369ZM653.478 124L653.446 110.56L646.854 121.632H644.518L637.958 110.848V124H633.094V101.6H637.382L645.766 115.52L654.022 101.6H658.278L658.342 124H653.478ZM549.516 163.384C547.745 163.384 546.028 163.149 544.364 162.68C542.721 162.189 541.399 161.56 540.396 160.792L542.156 156.888C543.116 157.592 544.257 158.157 545.58 158.584C546.903 159.011 548.225 159.224 549.548 159.224C551.02 159.224 552.108 159.011 552.812 158.584C553.516 158.136 553.868 157.549 553.868 156.824C553.868 156.291 553.655 155.853 553.228 155.512C552.823 155.149 552.289 154.861 551.628 154.648C550.988 154.435 550.113 154.2 549.004 153.944C547.297 153.539 545.9 153.133 544.812 152.728C543.724 152.323 542.785 151.672 541.996 150.776C541.228 149.88 540.844 148.685 540.844 147.192C540.844 145.891 541.196 144.717 541.9 143.672C542.604 142.605 543.66 141.763 545.068 141.144C546.497 140.525 548.236 140.216 550.284 140.216C551.713 140.216 553.111 140.387 554.476 140.728C555.841 141.069 557.036 141.56 558.06 142.2L556.46 146.136C554.391 144.963 552.321 144.376 550.252 144.376C548.801 144.376 547.724 144.611 547.02 145.08C546.337 145.549 545.996 146.168 545.996 146.936C545.996 147.704 546.391 148.28 547.18 148.664C547.991 149.027 549.217 149.389 550.86 149.752C552.567 150.157 553.964 150.563 555.052 150.968C556.14 151.373 557.068 152.013 557.836 152.888C558.625 153.763 559.02 154.947 559.02 156.44C559.02 157.72 558.657 158.893 557.932 159.96C557.228 161.005 556.161 161.837 554.732 162.456C553.303 163.075 551.564 163.384 549.516 163.384ZM572.322 154.2L569.314 157.336V163H564.162V140.6H569.314V151.064L579.234 140.6H584.994L575.714 150.584L585.538 163H579.49L572.322 154.2ZM589.45 140.6H594.634V163H589.45V140.6ZM601.55 140.6H606.734V158.776H617.966V163H601.55V140.6ZM622.462 140.6H627.646V158.776H638.878V163H622.462V140.6ZM650.61 163.384C648.839 163.384 647.122 163.149 645.458 162.68C643.815 162.189 642.492 161.56 641.49 160.792L643.25 156.888C644.21 157.592 645.351 158.157 646.674 158.584C647.996 159.011 649.319 159.224 650.642 159.224C652.114 159.224 653.202 159.011 653.906 158.584C654.61 158.136 654.962 157.549 654.962 156.824C654.962 156.291 654.748 155.853 654.322 155.512C653.916 155.149 653.383 154.861 652.722 154.648C652.082 154.435 651.207 154.2 650.098 153.944C648.391 153.539 646.994 153.133 645.906 152.728C644.818 152.323 643.879 151.672 643.09 150.776C642.322 149.88 641.938 148.685 641.938 147.192C641.938 145.891 642.29 144.717 642.994 143.672C643.698 142.605 644.754 141.763 646.162 141.144C647.591 140.525 649.33 140.216 651.378 140.216C652.807 140.216 654.204 140.387 655.57 140.728C656.935 141.069 658.13 141.56 659.154 142.2L657.554 146.136C655.484 144.963 653.415 144.376 651.346 144.376C649.895 144.376 648.818 144.611 648.114 145.08C647.431 145.549 647.09 146.168 647.09 146.936C647.09 147.704 647.484 148.28 648.274 148.664C649.084 149.027 650.311 149.389 651.954 149.752C653.66 150.157 655.058 150.563 656.146 150.968C657.234 151.373 658.162 152.013 658.93 152.888C659.719 153.763 660.114 154.947 660.114 156.44C660.114 157.72 659.751 158.893 659.026 159.96C658.322 161.005 657.255 161.837 655.826 162.456C654.396 163.075 652.658 163.384 650.61 163.384Z" fill="#DD6B4D"/>
</g>
</svg>
